<svg width="30" height="8" viewBox="0 0 30 8" fill="none" xmlns="http://www.w3.org/2000/svg">
<path d="M5.293 0.379039C4.92572 0.12655 4.44646 0 3.8552 0H1.56619C1.38493 0 1.28479 0.0906492 1.26577 0.271773L0.335927 6.10866C0.326263 6.16599 0.340605 6.21842 0.378824 6.26609C0.416824 6.31384 0.46462 6.33758 0.52186 6.33758H1.60913C1.79983 6.33758 1.90465 6.24715 1.92389 6.06581L2.18136 4.49219C2.19076 4.41593 2.2243 4.35392 2.28154 4.30617C2.33874 4.25851 2.41028 4.22733 2.49612 4.21307C2.58196 4.19891 2.6629 4.19173 2.73934 4.19173C2.81556 4.19173 2.90612 4.19659 3.0112 4.20608C3.11601 4.21557 3.18283 4.22024 3.21147 4.22024C4.03165 4.22024 4.67542 3.98914 5.14283 3.5264C5.61003 3.06393 5.84389 2.42261 5.84389 1.60217C5.84389 1.03947 5.6601 0.63179 5.293 0.378908V0.379039ZM4.11281 2.13168C4.06497 2.46555 3.94113 2.6848 3.74085 2.78975C3.54053 2.89483 3.25442 2.94713 2.8825 2.94713L2.41037 2.96139L2.65363 1.43058C2.67261 1.32576 2.73457 1.27329 2.83956 1.27329H3.11147C3.49278 1.27329 3.76954 1.32826 3.94122 1.43775C4.11281 1.54751 4.17005 1.77888 4.11281 2.13168Z" fill="#003087"/>
<path d="M29.4486 0H28.3901C28.2849 0 28.2229 0.0524749 28.204 0.157467L27.2741 6.10893L27.2598 6.13753C27.2598 6.18545 27.2788 6.23054 27.3171 6.27348C27.355 6.31633 27.4029 6.3378 27.4601 6.3378H28.4044C28.5854 6.3378 28.6855 6.24737 28.7049 6.06603L29.6348 0.214707V0.200496C29.6347 0.066905 29.5725 0.000175485 29.4486 0.000175485V0Z" fill="#009CDE"/>
<path d="M16.6601 2.30379C16.6601 2.25622 16.641 2.21083 16.6031 2.16802C16.5648 2.12512 16.5219 2.10352 16.4743 2.10352H15.3727C15.2676 2.10352 15.1817 2.15144 15.1151 2.24655L13.5987 4.47841L12.9692 2.33248C12.9213 2.18 12.8165 2.10352 12.6545 2.10352H11.5814C11.5336 2.10352 11.4907 2.12503 11.4527 2.16802C11.4145 2.21083 11.3955 2.2563 11.3955 2.30379C11.3955 2.32299 11.4885 2.60425 11.6745 3.14789C11.8604 3.69169 12.0607 4.27827 12.2753 4.90779C12.4899 5.53717 12.6019 5.87117 12.6115 5.909C11.8293 6.97737 11.4384 7.5496 11.4384 7.62578C11.4384 7.74988 11.5003 7.8118 11.6244 7.8118H12.726C12.8309 7.8118 12.9167 7.76423 12.9836 7.66881L16.6317 2.40389C16.6506 2.385 16.6601 2.35176 16.6601 2.30375V2.30379Z" fill="#003087"/>
<path d="M26.9175 2.10356H25.8302C25.6965 2.10356 25.6157 2.26098 25.5871 2.57578C25.3388 2.19438 24.8861 2.00342 24.2278 2.00342C23.5412 2.00342 22.9569 2.26098 22.4754 2.77601C21.9937 3.29105 21.7529 3.89687 21.7529 4.59302C21.7529 5.15585 21.9174 5.60407 22.2464 5.93777C22.5755 6.27181 23.0165 6.4385 23.5699 6.4385C23.8464 6.4385 24.1278 6.38117 24.4139 6.26682C24.7 6.15239 24.924 5.99986 25.0864 5.80903C25.0864 5.81861 25.0767 5.86137 25.0578 5.93764C25.0385 6.01407 25.0291 6.07149 25.0291 6.10931C25.0291 6.2621 25.091 6.33819 25.2151 6.33819H26.2024C26.3834 6.33819 26.4884 6.24776 26.5169 6.06641L27.1036 2.33243C27.113 2.27515 27.0987 2.2228 27.0606 2.17505C27.0223 2.12748 26.9747 2.10356 26.9175 2.10356ZM25.0505 4.92204C24.8073 5.16049 24.514 5.27965 24.1707 5.27965C23.894 5.27965 23.67 5.20348 23.4983 5.05078C23.3265 4.89851 23.2407 4.68866 23.2407 4.4213C23.2407 4.06867 23.3599 3.77036 23.5985 3.52718C23.8366 3.28397 24.1325 3.1624 24.4854 3.1624C24.7522 3.1624 24.974 3.24107 25.1506 3.39836C25.3269 3.55578 25.4154 3.77276 25.4154 4.04943C25.4153 4.39275 25.2937 4.68372 25.0505 4.92204Z" fill="#009CDE"/>
<path d="M10.6657 2.10356H9.57836C9.44464 2.10356 9.36374 2.26098 9.3351 2.57578C9.07758 2.19438 8.62451 2.00342 7.97597 2.00342C7.28926 2.00342 6.705 2.26098 6.22342 2.77601C5.7417 3.29105 5.50098 3.89687 5.50098 4.59302C5.50098 5.15585 5.66553 5.60407 5.99459 5.93777C6.32364 6.27181 6.76465 6.4385 7.3179 6.4385C7.58482 6.4385 7.86158 6.38117 8.14765 6.26682C8.43377 6.15239 8.66268 5.99986 8.83436 5.80903C8.7961 5.92338 8.77712 6.02356 8.77712 6.10931C8.77712 6.2621 8.83909 6.33819 8.9631 6.33819H9.95023C10.1313 6.33819 10.2363 6.24776 10.265 6.06641L10.8515 2.33243C10.8609 2.27515 10.8467 2.2228 10.8086 2.17505C10.7704 2.12748 10.7228 2.10356 10.6657 2.10356ZM8.79868 4.92912C8.55542 5.16307 8.25723 5.27965 7.90456 5.27965C7.6278 5.27965 7.40606 5.20348 7.23927 5.05078C7.07228 4.89851 6.98889 4.68866 6.98889 4.4213C6.98889 4.06867 7.10805 3.77036 7.34659 3.52718C7.58486 3.28397 7.88055 3.16236 8.23358 3.16236C8.50049 3.16236 8.72224 3.24107 8.89886 3.39836C9.07518 3.55578 9.16351 3.77276 9.16351 4.04943C9.16346 4.40232 9.0419 4.6957 8.79868 4.92912Z" fill="#003087"/>
<path d="M21.546 0.379039C21.1788 0.12655 20.6996 0 20.1083 0H17.8335C17.6427 0 17.5377 0.0906492 17.5188 0.271773L16.5889 6.10866C16.5792 6.16599 16.5935 6.21842 16.6318 6.26609C16.6696 6.31384 16.7175 6.33758 16.7748 6.33758H17.9479C18.0623 6.33758 18.1386 6.27566 18.1768 6.15165L18.4343 4.49219C18.4438 4.41593 18.4772 4.35392 18.5345 4.30617C18.5918 4.25851 18.6632 4.22733 18.7491 4.21307C18.8349 4.19891 18.9158 4.19173 18.9923 4.19173C19.0686 4.19173 19.1591 4.19659 19.2641 4.20608C19.3689 4.21557 19.4359 4.22024 19.4644 4.22024C20.2847 4.22024 20.9283 3.98914 21.3958 3.5264C21.8631 3.06393 22.0968 2.42261 22.0968 1.60217C22.0968 1.03947 21.9131 0.631747 21.546 0.378908V0.379039ZM20.0797 2.73247C19.8698 2.8755 19.555 2.947 19.1355 2.947L18.6776 2.96134L18.9208 1.43049C18.9397 1.32572 19.0017 1.27316 19.1067 1.27316H19.3642C19.574 1.27316 19.7409 1.28273 19.8651 1.30176C19.9888 1.32091 20.1083 1.38042 20.2227 1.48052C20.3372 1.5807 20.3944 1.72623 20.3944 1.91689C20.3944 2.31761 20.2893 2.5893 20.0797 2.73247Z" fill="#009CDE"/>
</svg>
