<svg width="33" height="32" viewBox="0 0 33 32" fill="none" xmlns="http://www.w3.org/2000/svg">
<path d="M14.1309 26.0184L10.1109 21.9984L9.99988 21.4999L9.11138 20.9984L6.48138 18.3684C5.17287 17.0599 5.17287 14.9389 6.48138 13.6309L9.11138 11.0009L9.99988 10.4999L10.1114 10.0014L14.1314 5.98138C15.4399 4.67287 17.5609 4.67287 18.8689 5.98138L22.8889 10.0014L22.9999 10.4999L23.8884 11.0014L26.5184 13.6314C27.8269 14.9399 27.8269 17.0609 26.5184 18.3689L23.8884 20.9989L22.9999 21.4999L22.8884 21.9984L18.8684 26.0184C17.5604 27.3264 15.4394 27.3264 14.1309 26.0184Z" fill="#37C6D0"/>
<path opacity="0.05" d="M22.3944 9.50488C21.5144 9.53988 20.6944 9.89988 20.0794 10.5249L16.6744 13.9099C16.6294 13.9599 16.5644 13.9849 16.4994 13.9849C16.4344 13.9849 16.3744 13.9599 16.3244 13.9099L12.9244 10.5299C12.3044 9.89988 11.4844 9.53988 10.6044 9.50488L8.60938 11.4999H10.4494C10.8494 11.4999 11.2244 11.6549 11.5094 11.9399L14.9094 15.3299C15.3344 15.7499 15.8994 15.9849 16.4994 15.9849C17.0994 15.9849 17.6644 15.7499 18.0894 15.3299L21.4844 11.9399C21.7744 11.6549 22.1494 11.4999 22.5494 11.4999H24.3894L22.3944 9.50488ZM22.5494 20.4999C22.1494 20.4999 21.7744 20.3449 21.4894 20.0599L18.0894 16.6699C17.6644 16.2499 17.0994 16.0149 16.4994 16.0149C15.8994 16.0149 15.3344 16.2499 14.9094 16.6699L11.5144 20.0599C11.2244 20.3449 10.8494 20.4999 10.4494 20.4999H8.60938L10.6044 22.4949C11.4844 22.4599 12.3044 22.0999 12.9194 21.4749L16.3244 18.0899C16.3694 18.0399 16.4344 18.0149 16.4994 18.0149C16.5644 18.0149 16.6244 18.0399 16.6744 18.0899L20.0744 21.4699C20.6944 22.0999 21.5144 22.4599 22.3944 22.4949L24.3894 20.4999H22.5494Z" fill="black"/>
<path opacity="0.07" d="M22.6394 9.75H22.5494C21.6794 9.75 20.8594 10.09 20.2544 10.705L16.8544 14.09C16.7594 14.185 16.6294 14.235 16.4994 14.235C16.3694 14.235 16.2394 14.185 16.1444 14.09L12.7494 10.705C12.1394 10.09 11.3194 9.75 10.4494 9.75H10.3594L8.85938 11.25H10.4494C10.9144 11.25 11.3544 11.43 11.6894 11.76L15.0894 15.15C15.4644 15.53 15.9644 15.735 16.4994 15.735C17.0344 15.735 17.5344 15.53 17.9094 15.15L21.3094 11.765C21.6444 11.43 22.0844 11.25 22.5494 11.25H24.1394L22.6394 9.75ZM22.5494 20.75C22.0844 20.75 21.6444 20.57 21.3094 20.24L17.9094 16.85C17.5344 16.47 17.0344 16.265 16.4994 16.265C15.9644 16.265 15.4644 16.47 15.0894 16.85L11.6894 20.235C11.3544 20.57 10.9144 20.75 10.4494 20.75H8.85938L10.3594 22.25H10.4494C11.3194 22.25 12.1394 21.91 12.7444 21.295L16.1444 17.91C16.2394 17.815 16.3694 17.765 16.4994 17.765C16.6294 17.765 16.7594 17.815 16.8544 17.91L20.2494 21.295C20.8594 21.91 21.6794 22.25 22.5494 22.25H22.6394L24.1394 20.75H22.5494Z" fill="black"/>
<path d="M23.8894 11H22.5494C22.0144 11 21.5144 11.21 21.1344 11.585L17.7344 14.975C17.3944 15.315 16.9444 15.485 16.4994 15.485C16.0544 15.485 15.6044 15.315 15.2644 14.975L11.8644 11.585C11.4844 11.21 10.9844 11 10.4494 11H9.10938L10.1094 10H10.4494C11.2494 10 12.0044 10.31 12.5694 10.88L15.9694 14.265C16.2644 14.56 16.7344 14.56 17.0294 14.265L20.4294 10.88C20.9944 10.31 21.7494 10 22.5494 10H22.8894L23.8894 11ZM22.5494 21C22.0144 21 21.5144 20.79 21.1344 20.415L17.7344 17.025C17.0544 16.345 15.9444 16.345 15.2644 17.025L11.8644 20.415C11.4844 20.79 10.9844 21 10.4494 21H9.10938L10.1094 22H10.4494C11.2494 22 12.0044 21.69 12.5694 21.12L15.9694 17.735C16.2644 17.44 16.7344 17.44 17.0294 17.735L20.4294 21.12C20.9944 21.69 21.7494 22 22.5494 22H22.8894L23.8894 21H22.5494Z" fill="white"/>
</svg>
