<svg width="45" height="46" viewBox="0 0 45 46" fill="none" xmlns="http://www.w3.org/2000/svg">
<g id="ph:ear">
<g id="logo-white">
<path id="Shape" d="M23.9656 19.4328L23.9967 19.4096L22.4139 16.5249L20.7917 19.4133L20.7968 19.3753L17.6378 18.4548L18.5341 21.644L18.5104 21.6134L15.6257 23.1966L18.5141 24.8179L18.4765 24.8119L17.5556 27.9723L20.7448 27.076L20.7142 27.0997L22.2979 29.9844L23.9187 27.0955L23.9141 27.1336L27.0731 28.0535L26.1773 24.8653L26.2 24.8954L29.0852 23.3122L26.1963 21.6909L26.2348 21.696L27.1543 18.5365L23.9656 19.4328Z" fill="black"/>
<path id="Shape_2" d="M10.8602 24.2223L10.8575 24.0093H10.857C10.4174 25.0429 9.22364 25.5243 8.19044 25.0843C7.7249 24.8865 7.3726 24.5352 7.16513 24.1146C6.41042 24.7788 5.87293 25.6417 5.60001 26.59C6.5557 27.742 7.99596 28.4767 9.60936 28.4772C9.67805 28.4772 9.74628 28.4749 9.81498 28.4721C9.77506 28.5097 9.73468 28.5464 9.69522 28.5863C8.58265 29.6984 8.08322 31.1874 8.18766 32.643C9.01942 33.0784 9.9635 33.2877 10.9211 33.2297C10.6105 32.2294 11.1127 31.1424 12.1009 30.7437C12.586 30.5483 13.1021 30.5552 13.5579 30.7223C12.0712 28.9335 11.1192 26.6893 10.9387 24.2339L10.8602 24.2223Z" fill="black"/>
<path id="Shape_3" d="M29.6988 14.5159L29.7773 14.4574C29.4658 13.4571 29.9685 12.3687 30.9567 11.97C31.4877 11.7565 32.0539 11.7829 32.5385 11.9969C32.6499 10.9475 32.4359 9.90218 31.9509 8.99384C30.4247 8.81746 28.8369 9.31085 27.6663 10.4814C27.618 10.5302 27.5707 10.5798 27.5243 10.6309C27.5261 10.5761 27.528 10.5209 27.528 10.4657C27.5284 8.88198 26.8206 7.46446 25.7052 6.5083C24.7788 6.81789 23.9419 7.38462 23.3098 8.16393C24.206 8.66383 24.5996 9.76851 24.1893 10.7335C23.986 11.2106 23.6217 11.5652 23.1877 11.7704L23.2146 11.9217C25.6676 12.0948 27.9095 13.0403 29.6988 14.5159Z" fill="black"/>
<path id="Shape_4" d="M24.1327 37.3424C23.9442 37.7865 23.6151 38.1268 23.2206 38.3384C23.8783 39.1335 24.7518 39.7054 25.7173 40.0001C26.8805 39.0449 27.6231 37.5972 27.6236 35.975C27.6236 35.9058 27.6212 35.8371 27.618 35.7698C27.6556 35.8097 27.6927 35.8501 27.7317 35.8891C28.8652 37.0235 30.3908 37.522 31.8724 37.3929C32.3148 36.531 32.5148 35.5484 32.4275 34.5598C31.3883 34.9729 30.2098 34.4692 29.7907 33.4309C29.6366 33.0489 29.6083 32.6474 29.6839 32.2715C27.9318 33.7108 25.7475 34.6396 23.3575 34.8378C24.1786 35.3632 24.5263 36.4164 24.1327 37.3424Z" fill="black"/>
<path id="Shape_5" d="M13.6229 34.5162C13.1768 34.6962 12.7043 34.7046 12.2768 34.5765C12.2007 35.5856 12.4249 36.5858 12.8983 37.457C14.3873 37.5963 15.9237 37.0978 17.0636 35.9578C17.1124 35.9095 17.1593 35.8589 17.2057 35.8088C17.2043 35.8641 17.2015 35.9184 17.2015 35.9736C17.201 37.5628 17.9144 38.9822 19.0354 39.9379C19.9423 39.6529 20.7671 39.1219 21.4053 38.389C20.4148 37.9295 19.96 36.764 20.3902 35.7517C20.562 35.3488 20.8488 35.0309 21.196 34.8174C18.7518 34.5616 16.535 33.5359 14.7893 31.9902C15.1253 33.0012 14.6241 34.1119 13.6229 34.5162Z" fill="black"/>
<path id="Shape_6" d="M13.647 15.9487L13.5421 15.8109L13.6419 15.7078C12.6059 16.1126 11.4344 15.6104 11.0171 14.5758C10.8138 14.0722 10.8282 13.5356 11.0139 13.0677C10.0029 12.9986 9.00223 13.2283 8.1324 13.7092C7.98063 15.2117 8.47541 16.7675 9.62744 17.9186C9.67571 17.9673 9.72584 18.0142 9.77643 18.0602C9.72166 18.0588 9.66689 18.056 9.61119 18.056C8.04654 18.0555 6.64526 18.7471 5.69003 19.8393C5.97502 20.7388 6.5023 21.5585 7.22963 22.1934C7.73695 21.3185 8.82678 20.937 9.78154 21.3431C10.2875 21.558 10.6606 21.9544 10.8584 22.4241L10.9521 22.4079C11.1591 19.9558 12.1385 17.7223 13.647 15.9487Z" fill="black"/>
<path id="Shape_7" d="M21.3622 11.9368L21.3872 11.7581H21.4179C20.4594 11.2842 20.0235 10.1396 20.4478 9.14304C20.671 8.61762 21.0902 8.23563 21.5826 8.04439C20.9161 7.25162 20.0342 6.68628 19.0618 6.3999C17.8713 7.35466 17.1068 8.81814 17.1063 10.4636C17.1063 10.5323 17.1091 10.6005 17.1114 10.6692C17.0743 10.6293 17.0367 10.5889 16.9982 10.5494C15.8884 9.43964 14.4022 8.93742 12.9512 9.03861C12.5159 9.89451 12.3172 10.866 12.4017 11.8463C13.3736 11.5979 14.4027 12.0988 14.7879 13.054C14.9866 13.5465 14.9777 14.07 14.8032 14.5309L14.9545 14.6372C16.7146 13.1361 18.9295 12.1559 21.3622 11.9368Z" fill="black"/>
<path id="Shape_8" d="M33.8395 22.2471C34.3482 21.3745 35.4362 20.9948 36.3896 21.3995C36.8918 21.613 37.2622 22.0057 37.4622 22.4708C38.2935 21.8117 38.8918 20.921 39.1996 19.9328C38.2448 18.7321 36.7739 17.9606 35.1206 17.9606C35.0519 17.9606 34.9837 17.963 34.9159 17.9657C34.9549 17.9281 34.9962 17.891 35.0352 17.852C36.1668 16.7204 36.6662 15.1975 36.5381 13.7187C35.6544 13.281 34.6504 13.0945 33.6427 13.2077C33.9834 14.221 33.4826 15.3359 32.4777 15.7406C31.9973 15.9346 31.4867 15.9281 31.0342 15.7657L31.0189 15.7889C32.571 17.5485 33.5963 19.7838 33.8395 22.2471Z" fill="black"/>
<path id="Shape_9" d="M37.4515 24.0962C37.0013 25.108 35.8223 25.5768 34.7994 25.1415C34.3895 24.9674 34.0688 24.6741 33.8553 24.3194C33.6608 26.7214 32.7274 28.9173 31.2802 30.6769C32.2205 30.4894 33.1911 30.9879 33.5629 31.9093C33.7532 32.3813 33.7522 32.8821 33.5995 33.3286C34.6453 33.4452 35.6887 33.2377 36.597 32.7605C36.7595 31.2483 36.2619 29.6795 35.1034 28.5196C35.0546 28.4713 35.004 28.4244 34.9544 28.378C35.0096 28.3789 35.0635 28.3817 35.1192 28.3817C36.7284 28.3822 38.164 27.6511 39.1183 26.5051C38.8082 25.5731 38.2369 24.7312 37.4515 24.0962Z" fill="black"/>
<path id="Shape_10" d="M12.2332 24.4141C12.4337 26.4071 13.2116 28.2326 14.3938 29.723L17.6011 25.1627L12.2332 24.4141Z" fill="black"/>
<path id="Shape_11" d="M32.5352 22.1022C32.2874 20.1263 31.4751 18.324 30.2614 16.8638L27.1102 21.3452L32.5352 22.1022Z" fill="black"/>
<path id="Shape_12" d="M12.255 22.1805L17.6438 21.2416L14.4356 16.9932C13.2655 18.4501 12.4848 20.232 12.255 22.1805Z" fill="black"/>
<path id="Shape_13" d="M30.4201 29.7061C31.6162 28.1925 32.3932 26.3345 32.5756 24.3066L27.0675 25.2665L30.4201 29.7061Z" fill="black"/>
<path id="Shape_14" d="M23.4917 33.5438C25.5316 33.327 27.3938 32.5083 28.8972 31.2671L24.2636 28.0083L23.4917 33.5438Z" fill="black"/>
<path id="Shape_15" d="M28.6508 15.3084C27.1799 14.1675 25.3915 13.4169 23.4402 13.2188L24.3676 18.5426L28.6508 15.3084Z" fill="black"/>
<path id="Shape_16" d="M21.1802 13.2417C19.2498 13.4724 17.4842 14.2429 16.0369 15.3982L20.4468 18.5001L21.1802 13.2417Z" fill="black"/>
<path id="Shape_17" d="M15.9376 31.2928C17.4354 32.5196 19.2878 33.3305 21.3148 33.5449L20.3433 27.9653L15.9376 31.2928Z" fill="black"/>
</g>
</g>
</svg>
