<svg width="45" height="45" viewBox="0 0 45 45" fill="none" xmlns="http://www.w3.org/2000/svg">
<g id="ph:ear">
<g id="Aurora Icon">
<path id="Vector" d="M23.6335 18.4525C23.7163 18.6585 23.8375 18.836 23.9885 18.9877C24.143 19.1395 24.3421 19.3051 24.5885 19.4826C24.8871 19.7012 25.1544 19.855 25.3917 19.9476C25.6263 20.0395 25.8609 20.0917 26.0926 20.1084C26.3251 20.1251 26.6001 20.0631 26.9174 19.926C27.2348 19.7882 27.5599 19.6253 27.8863 19.4304C28.2163 19.2362 28.659 18.9543 29.2158 18.5847L35.0925 15.1087C35.5261 14.7982 35.8366 14.4453 36.021 14.0472C36.2062 13.6491 36.2347 13.2795 36.1087 12.9335C35.9915 12.6013 35.7937 12.3033 35.5331 12.0663C35.2749 11.8338 34.9268 11.7203 34.4855 11.7224C34.047 11.7273 33.6043 11.8839 33.1589 12.1964L26.9982 16.1681L28.8796 9.08789C29.0383 8.56656 29.0522 8.09951 28.92 7.67771C28.787 7.25869 28.5692 6.96217 28.2657 6.78468C27.9586 6.6082 27.6126 6.5104 27.2585 6.5H27.2112C26.8604 6.5 26.5339 6.64269 26.2256 6.92946C25.9033 7.22806 25.6639 7.63038 25.5031 8.14058L24.0219 14.8101C23.9025 15.2404 23.7895 15.6724 23.6829 16.1061C23.6071 16.4242 23.5437 16.7486 23.4957 17.0806C23.4484 17.4119 23.4365 17.6722 23.463 17.8622C23.4936 18.0516 23.5479 18.2485 23.6335 18.4525Z" fill="black"/>
<path id="Vector_2" d="M9.70579 15.1088L15.5915 18.5779C16.0649 18.8883 16.4421 19.1299 16.7191 19.3004C16.9969 19.4709 17.2878 19.6296 17.5892 19.7793C17.8899 19.9282 18.1342 20.0187 18.3207 20.0514C18.5087 20.0848 18.7147 20.0918 18.9346 20.0751C19.1503 20.0592 19.3607 20.0005 19.5534 19.9025C19.7819 19.7791 20.0012 19.6395 20.2098 19.4849C20.5084 19.2677 20.7381 19.061 20.8989 18.8647C21.0576 18.6677 21.1808 18.4617 21.2685 18.2459C21.3541 18.0301 21.3826 17.751 21.3492 17.4051C21.3157 17.0431 21.2587 16.6836 21.1787 16.329C21.0607 15.8178 20.9296 15.3098 20.7854 14.8053L19.2952 8.14003C19.1337 7.63052 18.8915 7.22821 18.572 6.92891C18.2644 6.64562 17.9372 6.50293 17.5864 6.50293H17.5391C17.1867 6.51212 16.8422 6.60901 16.5368 6.78483C16.2361 6.95745 16.0203 7.25396 15.8874 7.67368C15.7551 8.0927 15.769 8.56183 15.9277 9.08317L17.8001 16.1682L11.6505 12.1917C11.2051 11.8792 10.7645 11.7226 10.3239 11.7184C9.88537 11.7156 9.53457 11.8298 9.27216 12.0643C9.00916 12.3017 8.80881 12.6003 8.68887 12.9337C8.56358 13.2796 8.59143 13.6492 8.77657 14.0474C8.96172 14.4455 9.27216 14.7991 9.70579 15.1088Z" fill="black"/>
<path id="Vector_3" d="M25.6048 29.6722C25.4485 29.2543 25.2859 28.8387 25.1169 28.4256C24.9902 28.12 24.8494 27.8204 24.6951 27.5277C24.5385 27.2284 24.3944 27.0134 24.2615 26.8762C24.1174 26.7304 23.9559 26.603 23.7805 26.4969C23.597 26.3827 23.3921 26.3069 23.1784 26.2742C22.9209 26.2401 22.6614 26.2243 22.4016 26.2268C22.0313 26.2268 21.7237 26.2602 21.4794 26.3243C21.2358 26.3876 21.0151 26.4823 20.8161 26.6083C20.6198 26.7315 20.4325 26.9424 20.2571 27.241C20.0789 27.5368 19.9161 27.8618 19.7615 28.2099C19.5567 28.6931 19.3641 29.1814 19.1838 29.6743L16.4727 35.9415C16.3043 36.4489 16.2618 36.916 16.3447 37.3447C16.4303 37.7735 16.6245 38.0909 16.93 38.2969C17.2363 38.5009 17.5607 38.622 17.9066 38.6596C18.2525 38.6951 18.6005 38.5837 18.9534 38.3206C19.307 38.0603 19.5722 37.6712 19.7469 37.1575L22.3968 30.3237L25.0341 37.1575C25.2116 37.6712 25.4747 38.0575 25.8297 38.3206C26.1833 38.5816 26.5341 38.6951 26.8842 38.6596C27.2322 38.6241 27.5593 38.503 27.8656 38.2976C28.1712 38.0909 28.3654 37.7735 28.4482 37.344C28.5338 36.916 28.4913 36.4461 28.3229 35.9415L25.6048 29.6722Z" fill="black"/>
<path id="Vector_4" d="M39.1137 22.1773C39.0113 21.8244 38.7698 21.5397 38.3884 21.3288C38.0118 21.12 37.5636 21.0156 37.045 21.0156H37.0144L30.2112 21.6678C29.6447 21.6943 29.1992 21.7221 28.8748 21.7458C28.5505 21.7722 28.2206 21.8126 27.8913 21.8711C27.56 21.9288 27.3087 21.9998 27.1382 22.0827C26.9677 22.1655 26.7971 22.2789 26.6287 22.4237C26.4603 22.5685 26.3273 22.7369 26.2306 22.9284C26.1331 23.1232 26.0385 23.362 25.9438 23.6536C25.8303 24.0044 25.7663 24.3079 25.7489 24.5613C25.735 24.8146 25.7566 25.0541 25.8136 25.2789C25.87 25.5044 26.0155 25.748 26.2424 26.0063C26.47 26.2673 26.7282 26.5227 27.0122 26.7768C27.299 27.0301 27.7013 27.3642 28.2254 27.7791L33.3483 32.2929C33.7771 32.6103 34.2086 32.7948 34.6444 32.847C35.0808 32.8992 35.4406 32.8122 35.7323 32.5867C36.0211 32.3591 36.2369 32.0869 36.3768 31.7688C36.516 31.4514 36.5188 31.0846 36.3789 30.6677C36.2397 30.25 35.9529 29.8784 35.5193 29.5512L29.8396 24.919L37.1536 24.5209C37.6986 24.5112 38.1489 24.3789 38.5067 24.1249C38.8645 23.8694 39.0802 23.5708 39.154 23.227C39.227 22.8791 39.2131 22.5186 39.1137 22.1773Z" fill="black"/>
<path id="Vector_5" d="M17.603 26.913C17.8494 26.7021 18.0937 26.4745 18.3255 26.2351C18.5601 25.9936 18.7216 25.7896 18.8114 25.6219C18.9018 25.4534 18.9701 25.2613 19.0244 25.0463C19.0766 24.8305 19.0863 24.6168 19.0508 24.4038C19.0047 24.1483 18.9395 23.8965 18.8559 23.6507C18.7425 23.2999 18.6172 23.0173 18.48 22.8015C18.3509 22.5974 18.191 22.4145 18.006 22.2593C17.8258 22.1103 17.5696 21.999 17.2313 21.9231C16.8945 21.8465 16.5346 21.7909 16.1553 21.7526C15.6326 21.7062 15.1087 21.6737 14.5843 21.6551L7.78602 21.0148C7.25285 21.0106 6.79555 21.115 6.41203 21.328C6.0306 21.5417 5.78559 21.8257 5.68675 22.1786C5.58785 22.5167 5.57327 22.874 5.64429 23.2191C5.71738 23.5581 5.93106 23.8567 6.28883 24.1122C6.6466 24.3683 7.09624 24.4985 7.64124 24.5082L14.9588 24.9182L9.27416 29.5385C8.84053 29.8657 8.55376 30.2374 8.41385 30.6543C8.27465 31.0719 8.27673 31.4387 8.41873 31.761C8.56072 32.0812 8.77649 32.3561 9.06605 32.583C9.35491 32.8106 9.71754 32.8983 10.1512 32.844C10.5869 32.7918 11.0185 32.6074 11.4472 32.2893L16.5652 27.7636C17.0107 27.4058 17.3566 27.1239 17.603 26.913Z" fill="black"/>
</g>
</g>
</svg>
