<svg width="35" height="34" viewBox="0 0 35 34" fill="none" xmlns="http://www.w3.org/2000/svg">
<path d="M29.2288 28.346H24.2503V20.6263C24.2503 18.7855 24.2172 16.4158 21.661 16.4158C19.0681 16.4158 18.6713 18.4214 18.6713 20.4923V28.3455H13.6928V12.4707H18.4722V14.6402H18.5391C19.0174 13.8304 19.7085 13.1643 20.5389 12.7127C21.3693 12.2611 22.3079 12.041 23.2546 12.0758C28.3005 12.0758 29.2309 15.3621 29.2309 19.6374L29.2288 28.346ZM8.07548 10.3007C7.50408 10.3008 6.94546 10.1331 6.4703 9.8189C5.99514 9.50465 5.62479 9.05795 5.40602 8.53528C5.18726 8.01261 5.12993 7.43745 5.24131 6.88252C5.35268 6.3276 5.62776 5.81784 6.03173 5.4177C6.4357 5.01756 6.95043 4.74502 7.51084 4.63455C8.07124 4.52407 8.65214 4.58062 9.18008 4.79704C9.70803 5.01346 10.1593 5.38003 10.4768 5.8504C10.7944 6.32076 10.9639 6.87381 10.964 7.43958C10.9641 7.81524 10.8894 8.18724 10.7443 8.53433C10.5992 8.88142 10.3865 9.19681 10.1182 9.46249C9.85 9.72817 9.53153 9.93894 9.18103 10.0828C8.83054 10.2266 8.45488 10.3006 8.07548 10.3007ZM10.5647 28.346H5.58106V12.4707H10.5647V28.346ZM31.7108 0.00177832H3.07939C2.42954 -0.00548303 1.80333 0.24301 1.33842 0.692653C0.873513 1.1423 0.607937 1.7563 0.600006 2.39974V30.8667C0.607666 31.5105 0.873086 32.1249 1.33798 32.575C1.80287 33.0251 2.42922 33.2741 3.07939 33.2673H31.7108C32.3622 33.2754 32.9903 33.0271 33.4571 32.577C33.9238 32.1269 34.191 31.5118 34.2 30.8667V2.39769C34.1907 1.75297 33.9233 1.13827 33.4566 0.688635C32.9898 0.239004 32.3619 -0.00877953 31.7108 -0.000276445" fill="black"/>
</svg>
