<svg width="35" height="35" viewBox="0 0 35 35" fill="none" xmlns="http://www.w3.org/2000/svg">
<path d="M17.5003 32.0833C25.5545 32.0833 32.0837 25.5541 32.0837 17.5C32.0837 9.44581 25.5545 2.91663 17.5003 2.91663C9.44617 2.91663 2.91699 9.44581 2.91699 17.5C2.91699 25.5541 9.44617 32.0833 17.5003 32.0833Z" stroke="#823DC7" stroke-width="2" stroke-linecap="round" stroke-linejoin="round"/>
<path d="M23.3337 11.6666H14.5837C13.8101 11.6666 13.0682 11.9739 12.5213 12.5209C11.9743 13.0679 11.667 13.8097 11.667 14.5833C11.667 15.3568 11.9743 16.0987 12.5213 16.6457C13.0682 17.1927 13.8101 17.5 14.5837 17.5H20.417C21.1905 17.5 21.9324 17.8073 22.4794 18.3542C23.0264 18.9012 23.3337 19.6431 23.3337 20.4166C23.3337 21.1902 23.0264 21.932 22.4794 22.479C21.9324 23.026 21.1905 23.3333 20.417 23.3333H11.667" stroke="#823DC7" stroke-width="2" stroke-linecap="round" stroke-linejoin="round"/>
<path d="M17.5 26.25V8.75" stroke="#823DC7" stroke-width="2" stroke-linecap="round" stroke-linejoin="round"/>
</svg>

