<svg width="32" height="30" viewBox="0 0 32 30" fill="none" xmlns="http://www.w3.org/2000/svg">
<path d="M17.6816 2.5H7.91731C7.2174 2.5 6.54617 2.76339 6.05126 3.23223C5.55636 3.70107 5.27832 4.33696 5.27832 5V25C5.27832 25.663 5.55636 26.2989 6.05126 26.7678C6.54617 27.2366 7.2174 27.5 7.91731 27.5H23.7512C24.4511 27.5 25.1224 27.2366 25.6173 26.7678C26.1122 26.2989 26.3902 25.663 26.3902 25V15.75" stroke="white" stroke-width="2" stroke-linecap="round" stroke-linejoin="round"/>
<path d="M2.63867 7.5H7.91664" stroke="white" stroke-width="2" stroke-linecap="round" stroke-linejoin="round"/>
<path d="M2.63867 12.5H7.91664" stroke="white" stroke-width="2" stroke-linecap="round" stroke-linejoin="round"/>
<path d="M2.63867 17.5H7.91664" stroke="white" stroke-width="2" stroke-linecap="round" stroke-linejoin="round"/>
<path d="M2.63867 22.5H7.91664" stroke="white" stroke-width="2" stroke-linecap="round" stroke-linejoin="round"/>
<path d="M28.2078 7.03244C28.7335 6.5345 29.0288 5.85914 29.0288 5.15494C29.0288 4.45074 28.7335 3.77539 28.2078 3.27744C27.6822 2.7795 26.9693 2.49976 26.226 2.49976C25.4826 2.49976 24.7697 2.7795 24.2441 3.27744L17.6334 9.54244C17.3197 9.83947 17.0901 10.2066 16.9658 10.6099L15.8614 14.1974C15.8282 14.305 15.8262 14.419 15.8556 14.5276C15.885 14.6361 15.9446 14.7352 16.0282 14.8144C16.1118 14.8936 16.2164 14.9501 16.331 14.9779C16.4455 15.0057 16.5659 15.0038 16.6794 14.9724L20.4664 13.9262C20.8921 13.8084 21.2797 13.5909 21.5932 13.2937L28.2078 7.03244Z" stroke="white" stroke-width="2" stroke-linecap="round" stroke-linejoin="round"/>
</svg>

