<svg width="35" height="35" viewBox="0 0 35 35" fill="none" xmlns="http://www.w3.org/2000/svg">
<path d="M23.3337 30.625V27.7083C23.3337 26.1612 22.7191 24.6775 21.6251 23.5835C20.5312 22.4896 19.0474 21.875 17.5003 21.875H8.75033C7.20323 21.875 5.7195 22.4896 4.62554 23.5835C3.53157 24.6775 2.91699 26.1612 2.91699 27.7083V30.625" stroke="#823DC7" stroke-width="2" stroke-linecap="round" stroke-linejoin="round"/>
<path d="M23.333 4.56165C24.5839 4.88593 25.6917 5.61641 26.4825 6.6384C27.2734 7.6604 27.7025 8.91607 27.7025 10.2083C27.7025 11.5006 27.2734 12.7562 26.4825 13.7782C25.6917 14.8002 24.5839 15.5307 23.333 15.855" stroke="#823DC7" stroke-width="2" stroke-linecap="round" stroke-linejoin="round"/>
<path d="M32.083 30.625V27.7083C32.082 26.4158 31.6519 25.1603 30.86 24.1388C30.0681 23.1173 28.9594 22.3877 27.708 22.0646" stroke="#823DC7" stroke-width="2" stroke-linecap="round" stroke-linejoin="round"/>
<path d="M13.1253 16.0417C16.347 16.0417 18.9587 13.43 18.9587 10.2083C18.9587 6.98667 16.347 4.375 13.1253 4.375C9.90366 4.375 7.29199 6.98667 7.29199 10.2083C7.29199 13.43 9.90366 16.0417 13.1253 16.0417Z" stroke="#823DC7" stroke-width="2" stroke-linecap="round" stroke-linejoin="round"/>
</svg>

